<svg xmlns="http://www.w3.org/2000/svg" version="1.1" xmlns:xlink="http://www.w3.org/1999/xlink" xmlns:svgjs="http://svgjs.dev/svgjs" viewBox="0 0 9.896246053273838 9.896246053273838"><g transform="matrix(1,0,0,1,3.2814817908312284,2.603059952778308)"><rect width="9.896246053273838" height="9.896246053273838" x="-3.2814817908312284" y="-2.603059952778308" fill="#ffffff"></rect><g><path d=" M -1.803217166556654 3.7153479197244774 L -1.6629229584837162 3.647131094958243 L -1.5807129388936385 3.8162036021230654 L -1.0869852450984914 3.5761328534265084 L -1.0012769268024526 3.752399935364302 L -1.4950046205975998 3.9924706840608595 L -1.4136691756840123 4.159744547532439 L -1.5539633837569502 4.227961372298674 L -1.803217166556654 3.7153479197244774 M -1.7790698191872862 3.25092578916323 L -1.6676707490321157 3.2223732556755795 L -1.7235344015079532 3.004418553198072 L -1.5791999540895147 2.967424401114073 L -1.5233363016136774 3.1853791035915804 L -1.4003129806597063 3.153847175305219 L -1.4636251201323223 2.9068318458307103 L -1.3115411721813501 2.8678514305475704 L -1.1995655843297826 3.3047295230691525 L -1.8824903187593065 3.479768967493443 L -1.994465906610874 3.042890874971861 L -1.8423819586599022 3.003910459688721 L -1.7790698191872862 3.25092578916323 M -1.491219018056741 2.5535384139109785 L -1.5060933695168721 2.335044126414393 L -1.3564397479438686 2.3248562144553993 L -1.3282531915239855 2.7388979008073764 L -2.0316252129171026 2.7867810870146474 L -2.044937417876855 2.5912336881592557 L -1.491219018056741 2.5535384139109785 M -1.8750907922702642 1.9582217953206884 L -1.7608499139926856 1.9714135249406999 L -1.7350400082144024 1.7478987630932634 L -1.5870235659243224 1.7649906562531044 L -1.6128334717026056 1.9885054181005406 L -1.486671806126497 2.003073676028727 L -1.4574205795777762 1.749756945934966 L -1.3014569457553429 1.7677665246335903 L -1.3531914680042572 2.215789447270007 L -2.0535377217928907 2.1349184091647198 L -2.0018031995439767 1.6868954865283032 L -1.8458395657215432 1.7049050652269273 L -1.8750907922702642 1.9582217953206884 M -1.7833708537457134 1.4383867859486954 Q -1.8455501073534908 1.370062263112603 -1.8615692581740564 1.2794331463399677 Q -1.8775884089946222 1.1888040295673323 -1.842692432401133 1.0908332644504535 Q -1.7984013851863194 0.9664857548790302 -1.7017900694733004 0.9053588076609717 Q -1.605178753760281 0.8442318604429131 -1.482469542504771 0.8603392957772722 L -1.5532681104011772 1.0591069057740168 Q -1.5973244004007103 1.063583881480566 -1.6283474896635597 1.08809546920126 Q -1.6593705789264093 1.112607056921954 -1.674134261331347 1.1540562267790948 Q -1.6969508614117055 1.2181140347401311 -1.6648518704873565 1.2725397160095333 Q -1.6327528795630073 1.3269653972789355 -1.5564487259623612 1.35414399443348 Q -1.479202545774053 1.3816581298245003 -1.4199249576951591 1.3597796574932566 Q -1.3606473696162655 1.3379011851620128 -1.337830769535907 1.2738433772009765 Q -1.3230670871309693 1.2323942073438356 -1.3316091145499362 1.1937900136911554 Q -1.3401511419689032 1.1551858200384757 -1.3714569789823539 1.1238657854138574 L -1.3006584110859476 0.925098175417113 Q -1.195397188127182 0.9901909933099117 -1.1591827549798175 1.0986288318710664 Q -1.1229683218324529 1.207066670432221 -1.1672593690472661 1.3314141800036443 Q -1.2021553456407554 1.4293849451205232 -1.2718606142974587 1.4894800823738552 Q -1.341565882954162 1.5495752196271875 -1.432936963135339 1.5632070099177149 Q -1.524308043316516 1.5768388002082423 -1.623220835021057 1.541607285378277 Q -1.721191600137936 1.5067113087847877 -1.7833708537457134 1.4383867859486954 M -0.9422734000004191 0.7466854329525106 Q -1.0278948536997519 0.788160927722471 -1.1233071232181144 0.7807448084303266 Q -1.2187193927364772 0.7733286891381821 -1.3040205192045642 0.7138331613795731 Q -1.3893216456726514 0.654337633620964 -1.4292428941084652 0.5673618098345461 Q -1.469164142544279 0.48038598604812804 -1.459411479213197 0.38599379591594307 Q -1.4496588158821146 0.29160160578375804 -1.393023650034977 0.21040149501125205 Q -1.3358164118055453 0.12838118109963004 -1.250891095866918 0.08702975170808025 Q -1.1659657799282905 0.045678322316530684 -1.070839546601075 0.05350454317823328 Q -0.9757133132738595 0.06133076403993587 -0.8904121868057724 0.12082629179854487 Q -0.8051110603376854 0.18032181955715398 -0.7649037757107243 0.26688754177401386 Q -0.7246964910837633 0.35345326399087373 -0.7340390528452874 0.4481314903142059 Q -0.7433816146068115 0.5428097166375381 -0.800016780453949 0.624009827410044 Q -0.8566519463010864 0.7052099381825498 -0.9422734000004191 0.7466854329525106 M -0.9216931282879195 0.3946670351147843 Q -0.9369979334748115 0.33095665183080714 -1.0042545908823417 0.284046716482673 Q -1.0731516545681044 0.23599263636995027 -1.137816655445044 0.24392596238023145 Q -1.2024816563219833 0.25185928839051264 -1.2453870849940571 0.31337452382422937 Q -1.2888645860484256 0.3757099623970621 -1.2736838462399442 0.4387242079203342 Q -1.2585031064314633 0.501738453443606 -1.1896060427457007 0.5497925335563287 Q -1.1215291821990543 0.5972745412867572 -1.0571502175132619 0.589751316846034 Q -0.9927712528274695 0.5822280924053109 -0.9492937517731013 0.5198926538324781 Q -0.9063883231010275 0.45837741839876145 -0.9216931282879195 0.3946670351147843 M -0.30660196001195955 -0.8348769490555235 L 0.12873313898987315 -0.2803425934227416 L -0.025435277611581042 -0.15931326093428883 L -0.2656414528055001 -0.4652903734749301 L -0.13004956030542503 -0.07718621388855296 L -0.2590476231760296 0.024083227581376904 L -0.6065071444008681 -0.2015090619814669 L -0.3644484794239625 0.10682777122144155 L -0.5186168960254167 0.22785710370989434 L -0.9539519950272495 -0.32667725192288743 L -0.7675340627081442 -0.4730239447788227 L -0.34549710343177287 -0.22207015420224163 L -0.4922333187769759 -0.6891477527939169 L -0.30660196001195955 -0.8348769490555235 M 0.32572066849100867 -0.9604743017070353 Q 0.34317556661612114 -1.0511926930697681 0.40614348588827165 -1.118314158656687 Q 0.46911140516042216 -1.1854356242436057 0.568460522778154 -1.2161887188615155 Q 0.6945574797545058 -1.2552214927996315 0.801379727409876 -1.2144875093723408 Q 0.9082019750652459 -1.1737535259450502 0.9688192972462852 -1.0658529223712052 L 0.767255222079541 -1.0034596246367924 Q 0.7372767892001825 -1.0360524698961096 0.6990651504773928 -1.0462073045141134 Q 0.6608535117546033 -1.056362139132117 0.618821192762486 -1.0433512144860784 Q 0.553862154320123 -1.0232434218512914 0.5295149026417622 -0.9649363782312401 Q 0.5051676509634014 -0.9066293346111889 0.5291195804254272 -0.8292516564666094 Q 0.5533672127203174 -0.7509186983449363 0.6063976391865362 -0.7165635841869107 Q 0.659428065652755 -0.6822084700288853 0.7243871040951181 -0.7023162626636723 Q 0.7664194230872353 -0.715327187309711 0.7922115428297153 -0.7452941117296373 Q 0.8180036625721951 -0.7752610361495637 0.8243258688223924 -0.8190905890577325 L 1.0258899439891367 -0.8814838867921453 Q 1.0368327073613102 -0.7582067359093453 0.9717045591398369 -0.6642462425664419 Q 0.9065764109183634 -0.5702857492235385 0.7804794539420117 -0.5312529752854225 Q 0.6811303363242798 -0.5004998806675128 0.5912534592614584 -0.5203088929961093 Q 0.501376582198637 -0.5401179053247056 0.43572212231660845 -0.6051101502282255 Q 0.37006766243457995 -0.6701023951317454 0.33901886498380585 -0.7704067927265708 Q 0.3082657703658962 -0.8697559103443024 0.32572066849100867 -0.9604743017070353 M 1.5856032573904106 -0.669704112386005 L 1.4317159476052141 -0.9217332692053599 L 1.4107468204606939 -0.9205949780312972 L 1.4248399492824229 -0.6609772133848575 L 1.2291280959335682 -0.6503531624269387 L 1.190914035090034 -1.3543167165644003 L 1.4994597630736874 -1.371065858125609 Q 1.5843348015157928 -1.3756732271634817 1.644847091571104 -1.349414652330451 Q 1.7053593816264154 -1.3231560774974205 1.738106801140693 -1.273357919748806 Q 1.7708542206549711 -1.2235597620001915 1.7743232985187811 -1.1596538507026062 Q 1.7782260111155677 -1.087759700492823 1.7417382181049903 -1.0311987514094028 Q 1.7052504250944127 -0.9746378023259825 1.6306088552858373 -0.9475520854901383 L 1.8042812976118348 -0.6815748632012305 L 1.5856032573904106 -0.669704112386005 M 1.4034834386833412 -1.054397979810616 L 1.500340835493744 -1.0596558009479535 Q 1.5402820300547346 -1.0618239746128348 1.5592227448444114 -1.0818801288617461 Q 1.578163459634088 -1.1019362831106574 1.5762121033356946 -1.137883358215549 Q 1.5743691557205457 -1.1718333735923911 1.552842308846408 -1.1901935169376223 Q 1.5313154619722709 -1.2085536602828537 1.492372797275305 -1.2064396909595945 L 1.3955154004649022 -1.201181869822257 L 1.4034834386833412 -1.054397979810616 M 2.2016140513923155 -1.1773389503378304 L 2.1836448699263102 -1.0637515015706285 L 2.4058811827317057 -1.0285944073980093 L 2.382599373701838 -0.8814245824735474 L 2.1603630608964424 -0.9165816766461665 L 2.1405188344078976 -0.7911416245293433 L 2.3923866555873454 -0.751296917800375 L 2.3678548165424513 -0.5962253573094991 L 1.9223944739858587 -0.6666957994066156 L 2.0325533690600652 -1.3630362461968548 L 2.478013711616658 -1.292565804099738 L 2.4534818725717638 -1.1374942436088622 L 2.2016140513923155 -1.1773389503378304 M 3.18129167256785 -1.007455221189748 Q 3.242308013591458 -0.9351398968933666 3.2543976138197657 -0.8441517571919764 Q 3.2664872140480736 -0.7531636174905862 3.228254368750188 -0.657522363105107 Q 3.190392716125097 -0.5628096645874481 3.118448010315678 -0.5054144617740061 Q 3.0465033045062593 -0.448019258960564 2.952079622931101 -0.4367645551531286 Q 2.8576559413559424 -0.4255098513456932 2.755514795895722 -0.466341045353144 L 2.49644770877389 -0.569903801062951 L 2.75813854309437 -1.2245356878761822 L 3.017205630216202 -1.1209729321663753 Q 3.1202753315442426 -1.0797705454861295 3.18129167256785 -1.007455221189748 M 2.948603888049046 -0.6260802155381842 Q 3.0115491811936 -0.6515339003587775 3.043471751053971 -0.7313897049913135 Q 3.0757655135871365 -0.8121740654916697 3.0478979280217104 -0.8744689101800839 Q 3.020030342456284 -0.936763754868498 2.940174537823748 -0.9686863247288686 L 2.8770327388119754 -0.9939274264789292 L 2.7426609912601827 -0.6577902023280218 L 2.8058027902719553 -0.6325491005779613 Q 2.8856585949044913 -0.6006265307175906 2.948603888049046 -0.6260802155381842 M 3.737578259566723 -0.7464089824875999 L 3.3607732887589963 -0.15055412266468285 L 3.195117185886242 -0.25531124930058985 L 3.5719221566939687 -0.851166109123507 L 3.737578259566723 -0.7464089824875999 M 4.348607925461435 -0.2481304335432596 L 4.245070490928256 -0.13144281787523848 L 4.104446954097565 -0.2562187005177867 L 3.7400748287211867 0.15443194692928763 L 3.593467311599827 0.024346452259396884 L 3.9578394369762044 -0.38630419518767745 L 3.818711895218179 -0.50975267482339 L 3.9222493297513576 -0.6264402904914113 L 4.348607925461435 -0.2481304335432596 M 4.570385189728415 0.2731276600085144 Q 4.662676931440545 0.2690368884747566 4.7425868597555185 0.3146948927751635 Q 4.822496788070491 0.3603528970755703 4.87548187437031 0.4498435704991215 Q 4.942732176212388 0.5634278867674749 4.927920304006844 0.6767895136160986 Q 4.9131084318013 0.7901511404647226 4.822235746796931 0.8741699188425156 L 4.7147371582463355 0.6926071102620416 Q 4.739476680335234 0.6558789732712699 4.7404796010164905 0.6163537389252587 Q 4.741482521697747 0.5768285045792474 4.719065754417054 0.5389670658231296 Q 4.68442165952871 0.48045393320003843 4.622054412834625 0.47031359100664816 Q 4.559687166140539 0.460173248813258 4.489987699339504 0.5014404794890789 Q 4.419427745294011 0.5432171821485519 4.398327729275747 0.6027763067561968 Q 4.377227713257482 0.6623354313638417 4.4118718081458255 0.7208485639869328 Q 4.4342885754265176 0.7587100027430506 4.469426119012465 0.7768374137756733 Q 4.504563662598413 0.7949648248082959 4.548663120066092 0.7909352031068987 L 4.656161708616686 0.9724980116873728 Q 4.538796480462408 1.0117714533533904 4.432279651199484 0.9702453761997138 Q 4.32576282193656 0.9287192990460376 4.258512520094481 0.8151349827776841 Q 4.2055274337946615 0.7256443093541329 4.203921844725297 0.6336243545413841 Q 4.202316255655932 0.5416043997286353 4.250283934790328 0.46265123792709917 Q 4.298251613924726 0.38369807612556306 4.388602774592734 0.3302035178420915 Q 4.478093448016285 0.2772184315422721 4.570385189728415 0.2731276600085144 M 4.714015279925459 1.6210420652873192 L 4.646604683044749 1.3803019327207144 L 4.525617811338242 1.3747183071357172 L 4.470071479508537 1.176348437900835 L 5.2182567469397325 1.2337314109757018 L 5.279195926519894 1.4513604908159126 L 4.669337203887917 1.8879762697677185 L 4.613521229670688 1.6886434400025698 L 4.714015279925459 1.6210420652873192 M 4.845246882476802 1.5334106411758386 L 5.0443090619258095 1.398747176520383 L 4.804530881960853 1.3880036011056092 L 4.845246882476802 1.5334106411758386 M 4.682497329198735 2.3444587999452997 L 4.938541062478362 2.1973479347849345 L 4.937962430047932 2.176355908095964 L 4.678061147232105 2.1835199286631917 L 4.672660577881426 1.9875943462327992 L 5.377392902439725 1.9681688289255086 L 5.385907065344623 2.2770515073489337 Q 5.388249148991601 2.3620192344233386 5.360386031185445 2.421809674011288 Q 5.3325229133792895 2.4816001135992383 5.281869084733143 2.513007750305727 Q 5.231215256086996 2.5444153870122155 5.167239555701562 2.546178838228764 Q 5.095266892767948 2.5481627208473805 5.039699205360764 2.5101794071923376 Q 4.984131517953578 2.472196093537294 4.959046152307912 2.396858689610538 L 4.688531638830361 2.5633756497017077 L 4.682497329198735 2.3444587999452997 M 5.071911552729935 2.172663682111316 L 5.074584283480016 2.2696268530079897 Q 5.075686440490359 2.309611665748886 5.095230305047456 2.329080547539421 Q 5.114774169604553 2.3485494293299567 5.15076050107136 2.3475574880206485 Q 5.184747591901122 2.346620654561857 5.203675332644508 2.3255911364896056 Q 5.222603073387894 2.3045616184173543 5.22152847030281 2.26557642599498 L 5.21885573955273 2.168613255098306 L 5.071911552729935 2.172663682111316 M 5.223077416419024 3.285970379304909 Q 5.161817266255 3.358079283067769 5.074069648698339 3.3850117098639165 Q 4.986322031141677 3.411944136660064 4.885684385222741 3.3900109603307023 Q 4.78602380382729 3.368290727460849 4.717547569356135 3.306798814881621 Q 4.649071334884981 3.2453069023023926 4.62239567793537 3.15403308718378 Q 4.59572002098576 3.062759272065167 4.6191438015316795 2.9552821744818374 L 4.6785550267345135 2.682681172429574 L 5.367385515791309 2.832806311382971 L 5.307974290588475 3.1054073134352347 Q 5.284337566583046 3.213861475542049 5.223077416419024 3.285970379304909 M 4.808544781557336 3.1193774783918555 Q 4.844032584645212 3.1772619826395045 4.928060133664906 3.195575120157224 Q 5.013064747208085 3.2141012011344516 5.0699095415895234 3.176339853810343 Q 5.126754335970962 3.138578506486234 5.145067473488681 3.05455095746654 L 5.15954762873525 2.9881105698695727 L 4.805850271233747 2.911025037527545 L 4.791370115987179 2.977465425124512 Q 4.773056978469459 3.0614929741442065 4.808544781557336 3.1193774783918555 M 4.510343236042947 3.5074787415268296 Q 4.597378375653967 3.4617826314857094 4.698139930290859 3.503783930360347 L 4.60724569691184 3.691983925946001 Q 4.572623292429514 3.6785940376767825 4.5490520466919175 3.688309817335558 Q 4.525480800954322 3.698025596994334 4.512433781809008 3.725039950427681 Q 4.500691464578226 3.7493528685176942 4.505237162455133 3.7709823999692045 Q 4.50978286033204 3.792611931420715 4.531394343078717 3.8030495467369665 Q 4.559309174959843 3.8165314665204573 4.58722942707921 3.797810902383899 Q 4.615149679198577 3.779090338247341 4.662328268083433 3.729692152543474 Q 4.713047416416555 3.6775618543248485 4.750890980166315 3.648641884015081 Q 4.788734543916076 3.6197219137053134 4.839803769601452 3.6094052190846493 Q 4.890872995286829 3.5990885244639848 4.951205051287972 3.6282268672218523 Q 5.012437585736893 3.6578001106178966 5.041324168756116 3.7095090587939477 Q 5.070210751775339 3.7612180069699988 5.066628674679168 3.826119229791122 Q 5.063046597582996 3.8910204526122456 5.029994149081535 3.9594568146433926 Q 4.976501370585749 4.070215663720117 4.892758662932481 4.1113940429366345 Q 4.809015955279213 4.152572422153151 4.713191693519389 4.111845148021621 L 4.805825529451116 3.920043238644854 Q 4.835075740418198 3.9330595806187434 4.857529057388926 3.92335913954568 Q 4.879982374359655 3.9136586984726165 4.892594492866792 3.887544823487047 Q 4.902162306906688 3.8677342976359252 4.896544696020051 3.849473891070727 Q 4.890927085133414 3.831213484505529 4.869315602386735 3.820775869189278 Q 4.85130603343117 3.8120778564257356 4.83150813604664 3.8197292131127303 Q 4.81171023866211 3.827380569799725 4.792252500282364 3.843525117397765 Q 4.772794761902619 3.859669664995805 4.738816578020197 3.893232784934992 Q 4.68896723096343 3.943562126258061 4.649788288127714 3.97294767437743 Q 4.610609345291998 4.002333222496798 4.5604405980544 4.01308481775564 Q 4.510271850816801 4.0238364130144815 4.45444218705455 3.9968725734474995 Q 4.3977120448445195 3.9694738332423407 4.366387492558187 3.9193637302284694 Q 4.335062940271853 3.8692536272145985 4.334825653257822 3.803063041064656 Q 4.334588366243793 3.7368724549147134 4.36981531793614 3.663933700644675 Q 4.423308096431926 3.5531748515679498 4.510343236042947 3.5074787415268296" fill="#0e0904" fill-rule="nonzero"></path></g><g clip-path="url(#SvgjsClipPath1016)"><g clip-path="url(#ab58b3575-e6cd-4578-9c5d-816104551daf98b3db96-684b-40ea-be33-c5012ed7d4d3)"><path d=" M 2.38980651708018 2.4656844793110317 L 2.2639228906794693 2.5204220211376795 L 2.2723179590618674 2.5523911199272167 C 2.279525846056856 2.579781090508173 2.2802890340916195 2.590465722994862 2.28257859819591 2.623367607160221 C 2.301234305712351 2.889974627304267 2.099498268523202 3.1219837898723677 1.8329336477144214 3.140639497388808 C 1.5663690269056405 3.159295204905249 1.3343174650022755 2.9575591677161 1.3157041568210992 2.6909945469073193 C 1.2970484493046583 2.4244299260985387 1.4987420871585424 2.1923783641951733 1.7653067079673233 2.1737226566787324 C 1.842939890836876 2.168295541764859 1.9182411102668735 2.180930543673721 1.989217597499878 2.211288467723202 L 2.0244090457695276 2.2262978324068836 L 2.039715205800062 2.1912759814782925 C 2.048407069529313 2.1713906932391773 2.0566325405706527 2.152650187052207 2.064222021583023 2.135605654275823 L 2.0800793729719977 2.100075011324056 L 2.044421532014437 2.0845568546171984 C 1.9533153525119156 2.045131963726157 1.854077613732255 2.0281488605914104 1.755046068833281 2.0350344310281008 C 1.414876202005088 2.058820458111563 1.1574698376134693 2.3549374155997964 1.1812558646969313 2.695107282427989 C 1.2050418917803936 3.0352771492561823 1.501158849268627 3.292683513647801 1.8413287160968195 3.268897486564339 C 2.1814985829250126 3.245111459480877 2.4389049473166313 2.9489945019926433 2.4151189202331693 2.6088246351644506 C 2.412793845451679 2.5757662140784996 2.4078458202037005 2.5429447858576677 2.4003215522258103 2.510670174026812 Z" fill="#8c1627" transform="matrix(1,0,0,1,0,0)" fill-rule="nonzero"></path></g><g clip-path="url(#ab58b3575-e6cd-4578-9c5d-816104551daf98b3db96-684b-40ea-be33-c5012ed7d4d3)"><path d=" M 2.3797578746224612 2.159858074047196 C 2.368539542100245 2.1511292338593755 2.3544495329745163 2.1469370399519354 2.340284093491083 2.148113458178891 C 2.3181516404829416 2.1496398342484184 2.295891989469007 2.162571631504133 2.279271450045268 2.1835593024601287 L 1.804610891757643 2.7826195104142024 L 1.5025580273323604 2.477047501161955 C 1.478687201578369 2.4528798800611114 1.4372206516895525 2.4516502993384366 1.4111874598370648 2.4773442965088073 C 1.3990807214112402 2.4892596898281294 1.3922283794871042 2.505513017554643 1.392150158303242 2.522499588565647 C 1.392019333275738 2.5394939234914675 1.3986730921734385 2.555838363352562 1.4106362684786244 2.567909276634075 L 1.755936454873838 2.9171950005441647 C 1.7610667744408597 2.9223677194464504 1.7668754833721152 2.9265652536376496 1.7734473803381339 2.9297452037824976 C 1.784132012824823 2.9375890808064558 1.7974878034331838 2.9414050209802727 1.8114795840705145 2.9404298362691863 C 1.8336120370786557 2.9388610608643946 1.8558716880925905 2.925971662943945 1.872492227516329 2.9049415926526843 L 2.3805210626572246 2.263821244116089 C 2.3918840845081477 2.2495326681319057 2.399261568844195 2.232784930702374 2.401339136272162 2.216673183301811 C 2.4043070897406866 2.193819941594171 2.396760008063581 2.1733834619966155 2.3797578746224612 2.159858074047196" fill="#8c1627" transform="matrix(1,0,0,1,0,0)" fill-rule="nonzero"></path></g><g clip-path="url(#ab58b3575-e6cd-4578-9c5d-816104551daf98b3db96-684b-40ea-be33-c5012ed7d4d3)"><path d=" M 0.8861564912550491 0.7884939742477355 L 2.382386633408869 0.6717686042641864 C 2.5401545599285877 0.6594727970374412 2.707843930900232 0.7268453407729515 2.719079754745361 0.8705366879848105 L 2.9800476632992097 4.216989022416915 C 2.991283487144339 4.360765168299303 2.844793783805014 4.565384360286448 2.687025857285295 4.577680167513193 L 1.252783543288376 4.689529613941308 C 1.0950156167686573 4.701867820503318 0.9453459632844843 4.520313866900137 0.9341525387746197 4.3765377210177485 L 0.6731422308855065 1.0301701852561735 C 0.6619064070403775 0.8863940393737854 0.7283461654000657 0.800747382139216 0.8861564912550491 0.7884939742477355 M 1.928586548071445 1.0502250708363476 C 1.9245524276767707 0.9988702227273023 1.8796699078258952 0.9604970915905285 1.8283121201705759 0.9644936149312489 L 1.4563003525586398 0.9934947602522615 C 1.4055969077254489 0.9983118233079776 1.368120288743471 1.0428930158164593 1.372089400676128 1.093669876342699 C 1.3760585126087852 1.1444467368689388 1.4200072282500134 1.1826630957913313 1.4708433245544101 1.1795430433934941 L 1.5344847267866326 1.1745399218322667 L 1.8404807293915268 1.1506690960782755 L 1.842812692831082 1.150499498737217 C 1.8674870480772645 1.1485837613993264 1.8903886798017953 1.1369409159099624 1.9064758639774222 1.1181340990165576 C 1.9225630481530491 1.0993272821231528 1.9305169520378362 1.0748982829679112 1.928586548071445 1.0502250708363474 M 2.485629014778263 4.236704713314971 C 2.4885830831208855 4.274719411987844 2.5217664593221856 4.303159595478839 2.559785452156115 4.3002613168766635 C 2.5978138581234766 4.29728742041504 2.6262311529122337 4.2640484870286395 2.6232572567339427 4.22602008103912 C 2.6202833605556526 4.187991675049601 2.5870444273809774 4.159574380013196 2.5490160213693014 4.1625482759081525 C 2.511034857697873 4.165522977432034 2.4826559776610577 4.198723419695841 2.485629014778263 4.236704713314971 M 1.8106739967004866 4.296911769390757 C 1.8163759159471 4.369865894289418 1.8801392379290773 4.424384579050782 1.9530933628702212 4.418682660347719 C 2.026047487811365 4.412980741644657 2.080566173047803 4.349217420068875 2.0748642548882907 4.276263295085249 C 2.069162335487834 4.203309168218217 2.0053990135058566 4.148790483456853 1.9324448885647127 4.154492402159915 C 1.859490763623569 4.160194320862979 1.804972078387131 4.2239576424387595 1.8106739965466434 4.296911767422387 M 1.2649521525093275 4.331976019654613 C 1.2662972508535448 4.357007702859987 1.281107487755914 4.379342580575866 1.3036422556805227 4.390323413341821 C 1.3261770236051313 4.4013042461077765 1.3528937249914117 4.399204782670642 1.3734366782710103 4.384838797699117 C 1.3939796315506092 4.370472812727592 1.4051193640962227 4.346098723236912 1.4025379954430783 4.321164189162131 C 1.3986808481776416 4.283906368662783 1.365813084566529 4.256523800904556 1.3284712581279357 4.259458212535323 C 1.2911294316893422 4.262392624166091 1.2629422720554737 4.294573036432014 1.2649521525093272 4.331976019654613 M 1.035953342745016 4.082710327633804 L 2.833939553977266 3.9424533265783808 L 2.625970814504215 1.2765527224789854 L 0.8280270026072298 1.416809723534409 Z" fill="#0e0904" transform="matrix(1,0,0,1,0,0)" fill-rule="nonzero"></path></g><g clip-path="url(#ab58b3575-e6cd-4578-9c5d-816104551daf98b3db96-684b-40ea-be33-c5012ed7d4d3)"><path d=" M 2.524170010533819 0.35669914391265956 C 2.5114502099544276 0.3600910907338306 2.498984805386624 0.36411902758397124 2.4861802061367033 0.36674778637037886 C 2.4645509907365333 0.371650399829026 2.442358236591548 0.3612180579199266 2.4323330503506124 0.3414353832173898 C 2.4209700284996893 0.3195149268855718 2.4251675626908886 0.29420252373258277 2.443526474860477 0.2787267663609898 C 2.449716777809114 0.2735116481234393 2.456882265468838 0.2687205232385351 2.464344548475414 0.2659645664463337 C 2.4804986952112418 0.2599862601740197 2.4969072379586565 0.2545167459248813 2.5136549753881887 0.25053120841000537 C 2.571996460712331 0.23670902511373326 2.630719540053855 0.23721781713690895 2.6894850187306436 0.24811444629992097 C 2.773986893913068 0.2638869990183664 2.850136100048358 0.299332843299604 2.920222201240805 0.3483888742007905 C 2.9941666419423343 0.4000312645531199 3.0535257113128274 0.46464785149642857 3.091727512386267 0.5471569579214146 C 3.1069488737462714 0.5800164427515093 3.1194990769846043 0.6138935116279552 3.1223822317826 0.6504417386260735 C 3.1230182218115696 0.6585400116616194 3.1233150171584216 0.6669774793792823 3.121788641088895 0.6748637557385051 C 3.117845502909284 0.6958090273592363 3.1014369601618688 0.7102248013492134 3.0793469064889925 0.7137015468409137 C 3.0586984302151135 0.7170086949915554 3.0399155246928786 0.7084864286033632 3.0296124862235714 0.6897883217516578 C 3.0255775052235103 0.6818010381453884 3.022557828177861 0.6733402449137112 3.020623827147468 0.6646031166044626 C 3.0183766623784423 0.6559112528752118 3.017867870355267 0.6467953957933146 3.0157479035920347 0.6380187333935344 C 3.005784059804845 0.59574659613469 2.9852203822014958 0.5586047784428669 2.9587207976610963 0.5246429108958917 C 2.9250557254609735 0.48152278693175465 2.883801172248481 0.4467553320147512 2.8374162994689662 0.41792378403479724 C 2.7797108041737935 0.3820115470656486 2.7181893687048033 0.35585115720736676 2.6503080329461177 0.3464809041138817 C 2.607484704328833 0.3405449971768324 2.565170167734724 0.3418593765700362 2.524170010533819 0.35669914391265956" fill="#0e0904" transform="matrix(1,0,0,1,0,0)" fill-rule="nonzero"></path></g><g clip-path="url(#ab58b3575-e6cd-4578-9c5d-816104551daf98b3db96-684b-40ea-be33-c5012ed7d4d3)"><path d=" M 2.922384567339301 0.6357291692892444 C 2.925522118148884 0.6423010662552633 2.927896480923704 0.6494665539149872 2.929210860316908 0.6567168402452402 C 2.9338690062692563 0.6801907603918691 2.921352861761251 0.7036984199069045 2.8992769296200733 0.7129383588061506 C 2.8773724599454744 0.7224763068216002 2.851781154456708 0.7153440135214807 2.837967490827406 0.6958514266945014 C 2.8341548603103943 0.6905254646510067 2.8308877899073717 0.6848293984266052 2.8282156437165393 0.6788492932533814 C 2.7849259224113436 0.5846803696306199 2.6783339935560435 0.5280772570523278 2.586030640684926 0.5379987015042531 C 2.581917905164256 0.5384226948568995 2.577805169643586 0.5382106981805764 2.5736924341229157 0.5382954968511057 C 2.547031437367469 0.5392509912687554 2.524159868327153 0.5194511701739833 2.521286855735823 0.4929282081179427 C 2.518276502932034 0.4654110395311925 2.5334554649567744 0.4439145765520209 2.5644917783704897 0.43577390418121037 C 2.5687317118969535 0.43526511215803465 2.5760243975624713 0.433823534759037 2.5833594825632535 0.4334843400769198 C 2.7268388330987894 0.4268700437756362 2.8589127624481376 0.5047576226567768 2.922384567339301 0.6357291692892444" fill="#0e0904" transform="matrix(1,0,0,1,0,0)" fill-rule="nonzero"></path></g><g clip-path="url(#ab58b3575-e6cd-4578-9c5d-816104551daf98b3db96-684b-40ea-be33-c5012ed7d4d3)"><path d=" M 3.2070961036413475 0.6082120007024938 C 3.201329794045357 0.5977817642273928 3.19798024655945 0.5858251516827648 3.194969893755661 0.5741653344849893 C 3.191917141616607 0.5623783192814199 3.1912387522523726 0.5500401127194101 3.188440396124906 0.5381682988453114 C 3.174915008175487 0.48101399490857905 3.1470586449066196 0.43077078261998275 3.111273605943265 0.38489470186364405 C 3.0657367198690437 0.32646841786897257 3.009896795325515 0.27953235373101804 2.9472305778043797 0.2405249652875508 C 2.869131002246916 0.19193532707427532 2.7859435064576954 0.15665908013409638 2.694148945609754 0.14393927955470484 C 2.636316252308787 0.13592580518968822 2.57911954903679 0.13766417793553834 2.523618819175379 0.15776146285097695 C 2.506489487728465 0.16234059105955792 2.4895721529578743 0.16781010530869622 2.472230824834637 0.17132925013566122 C 2.4416185047735683 0.17756195241956302 2.413210950146261 0.1636973697880263 2.3994311661852534 0.1370705872418335 C 2.38404020748419 0.10747585122711595 2.3897217184096515 0.07330198700381751 2.4145677288747294 0.05227191671255699 C 2.422920397921863 0.04527602639389168 2.4326298456974653 0.038788928098402016 2.4427632868257136 0.03501538725984916 C 2.4645426290226213 0.02674474804170232 2.486800144270611 0.01979281420788351 2.509415041861725 0.014197313644911806 C 2.588277805453952 -0.0044583938715289945 2.6677341597398843 -0.0038648031778240615 2.7471481146905514 0.01093256482953467 C 2.861499121899281 0.03221703113238306 2.964444707921823 0.08021307865195362 3.059164822903025 0.14644084033531854 C 3.159184854792306 0.21635734418670702 3.239489195783531 0.30369997483186184 3.2911315861358603 0.4153374245836544 C 3.3116952637392103 0.4597295286057307 3.32869739718033 0.50552081069154 3.3325981360246764 0.5550008349453728 C 3.333446122729969 0.5659398634436495 3.333827716747351 0.5773028852945725 3.331792548654648 0.5879451184459967 C 3.3264078330760394 0.6163102737380397 3.304275380067898 0.6358139679597733 3.274383848706328 0.6405626935094128 C 3.246442686766932 0.6449298250416706 3.221087884278678 0.6334820045202183 3.2070961036413475 0.6082120007024938" fill="#0e0904" transform="matrix(1,0,0,1,0,0)" fill-rule="nonzero"></path></g><g clip-path="url(#ab58b3575-e6cd-4578-9c5d-816104551daf98b3db96-684b-40ea-be33-c5012ed7d4d3)"><path d=" M 0.4891291158369765 0.42776042981619344 C 0.5676950840823511 0.38336832579411717 0.6515609692358056 0.3577167279590111 0.7425075433784547 0.35890390934642097 C 0.7786741763591911 0.3593703020343319 0.8147136113341338 0.36271984952023834 0.8489298748926968 0.37590604278754086 C 0.856519355905067 0.37883159692080093 0.864151236252702 0.3821811444067073 0.8706807338834562 0.3869722692916115 C 0.8878524646656347 0.3996072712004737 0.8937883716026841 0.4205949421564696 0.8873860719777237 0.4420914051356412 C 0.8814501650406744 0.4620614920452858 0.865677612322229 0.4753748833183823 0.8443083473488512 0.4766044640410567 C 0.8353664773474991 0.47674681418852377 0.8264402079167592 0.4758072068800249 0.8177239641379231 0.4738061079135906 C 0.8089049024028783 0.47211013450300504 0.8005098340204799 0.4685909896760401 0.7916483729501704 0.4666830195891314 C 0.7492490376855322 0.45739756516617563 0.706849702420894 0.4599415252820539 0.6647471625031083 0.4691845803697451 C 0.611324000069664 0.4808867969027852 0.5621407711626836 0.5031040485814556 0.5161374924005512 0.5324443885845853 C 0.4587287924522309 0.5689926155827035 0.40861277816942854 0.6131727229284566 0.3708349704486358 0.670327026865189 C 0.3470489433651738 0.7063240625048669 0.3298772125829953 0.7451194542720109 0.3255948797212668 0.7885363735830003 C 0.3230933189406532 0.8014257715034505 0.321354946194803 0.8144423674296944 0.31817499604995514 0.8270773693385567 C 0.31326871310865717 0.8487034033901041 0.2942983880239393 0.8642325184916826 0.272129317952558 0.8647703783888201 C 0.24745290482853854 0.8655335664235836 0.22646523387254258 0.8508209970867542 0.22035972959443467 0.827501362691203 C 0.21815955186481006 0.8196315018323735 0.21731364115399404 0.8114448066480356 0.21785816881382097 0.8032913422550946 C 0.21951174288914188 0.7861196114729161 0.2216317096523738 0.7689478806907375 0.22532045182039734 0.7521577439259408 C 0.23804025239978882 0.6935618625902108 0.26381904824068886 0.6407746901857362 0.2990104965103386 0.5925242466545778 C 0.3497625008221105 0.5230741354911003 0.41467588311227177 0.4697357717281853 0.4891291158369765 0.42776042981619344" fill="#0e0904" transform="matrix(1,0,0,1,0,0)" fill-rule="nonzero"></path></g><g clip-path="url(#ab58b3575-e6cd-4578-9c5d-816104551daf98b3db96-684b-40ea-be33-c5012ed7d4d3)"><path d=" M 0.7492066383502677 0.5499553140488813 C 0.7565417233510502 0.5499129147136167 0.7640040063576264 0.550930498759968 0.771084695346821 0.5528808681821413 C 0.794870722430283 0.5593255671423664 0.8094984930965833 0.5797196474046573 0.8088625030676136 0.6041840638523537 C 0.8080146259575159 0.6280542271517835 0.7905188352547765 0.6480468867706022 0.7669719598261512 0.6520529133661302 C 0.7605066693836661 0.6531867008848898 0.7539457752353682 0.653683738320367 0.7473834669338882 0.6535368901003926 C 0.6438018908823769 0.6518833160250717 0.5466650137910908 0.723580591957575 0.5157558983831695 0.8110928199437885 C 0.514399119654701 0.8149511594528704 0.512406350897263 0.8185975022856293 0.5106679781514128 0.8223286437889175 C 0.5000545400946971 0.8467847772591421 0.4723513469611814 0.8588875750609586 0.4471961732602494 0.8500578090519909 C 0.42103578340196757 0.8408571532995645 0.40818878481678217 0.817834314250866 0.4142942890948901 0.7863316081492396 C 0.4156086684880939 0.7823460706343636 0.417474239239738 0.7751381836393751 0.42035739403773337 0.7683118906617684 C 0.4763669159223205 0.6360683639713617 0.6036921197220292 0.5506337034131156 0.7492066383502677 0.5499553140488813" fill="#0e0904" transform="matrix(1,0,0,1,0,0)" fill-rule="nonzero"></path></g><g clip-path="url(#ab58b3575-e6cd-4578-9c5d-816104551daf98b3db96-684b-40ea-be33-c5012ed7d4d3)"><path d=" M 0.11003665923584588 0.4381058676207654 C 0.1786387836940306 0.3441913400095917 0.2663630083565671 0.272070070724442 0.367061429610083 0.2152549614698267 C 0.4732717644480018 0.1552175027350989 0.5867747849514384 0.12053484648862482 0.7097328572188895 0.1221884205639457 C 0.7586192907790174 0.12286680992817992 0.8072937276628219 0.1272763407957023 0.853593801771807 0.14512646094211504 C 0.8638968402411141 0.14906959912172638 0.8742422780456858 0.15369112666557197 0.8830189404454659 0.16013582562579698 C 0.9062537761704879 0.17718035840218155 0.914309649870769 0.20554551369422455 0.9056177861415182 0.23458905835050176 C 0.8975195131059724 0.26168223358460563 0.8762350468031239 0.27965955173681223 0.8474034988231699 0.28127072647686846 C 0.8355316849490712 0.2819491158411027 0.8232782770575907 0.2798291490778708 0.8114488625187566 0.2775395849735803 C 0.7995346493093934 0.27516522219876055 0.788086828787941 0.2704588959843857 0.7761726155785776 0.2678725365332428 C 0.7187639156302575 0.2553647326301745 0.6614824136877311 0.25879907878661024 0.6045825057625865 0.27126448335441383 C 0.5322492398011137 0.287079435408124 0.46576708210616086 0.3171405641107525 0.40352485793767195 0.3568263419184539 C 0.3259764737386485 0.4062639668370221 0.25826473532102123 0.46604702956016203 0.20708873765660288 0.5433410177475976 C 0.17486524285547778 0.5920578539666669 0.1517152058009853 0.6443786336832306 0.14590649686972984 0.7031017130247545 C 0.14259934871908805 0.7205702391537856 0.14026738527953295 0.7381659632886104 0.13594265308253986 0.7552952947355243 C 0.12831077273490496 0.7856532187850052 0.10354956094035622 0.8052417116772681 0.07357323090825699 0.8062168963883548 C 0.040204954054986676 0.8073192791052354 0.011882198098208336 0.7874339908661201 0.003656727056868498 0.7559312847644938 C 0.0009007702646670292 0.7453314509483342 -0.0007104044753892346 0.7338412310916174 0.0003071795709620773 0.7230294005991346 C 0.002427146334193988 0.6999641622151713 0.005352700467454011 0.6766445278196203 0.010228624022887428 0.6539608834530388 C 0.02752755281085984 0.5747165258434299 0.06233740706312784 0.5033584445930437 0.11003665923584588 0.4381058676207654" fill="#0e0904" transform="matrix(1,0,0,1,0,0)" fill-rule="nonzero"></path></g></g><g><path d=" M -1.079150494323538 2.345063073858611 A 2.7457917301292287 2.7457917301292287 0 0 1 4.4124329659349195 2.345063073858611 A 2.7457917301292287 2.7457917301292287 0 0 1 -1.079150494323538 2.345063073858611 Z M -1.0291504943235381 2.3450630738586113 A 2.695791730129229 2.695791730129229 0 0 0 4.36243296593492 2.3450630738586113 A 2.695791730129229 2.695791730129229 0 0 0 -1.0291504943235381 2.3450630738586113 Z" fill="#0e0904" fill-rule="nonzero"></path></g><g><path d=" M -2.481794619725075 2.3450630738586113 A 4.148435855530766 4.148435855530766 0 0 1 5.815077091336457 2.3450630738586113 A 4.148435855530766 4.148435855530766 0 0 1 -2.4817946197250755 2.3450630738586113 Z M -2.4317946197250753 2.3450630738586105 A 4.098435855530766 4.098435855530766 0 0 0 5.765077091336456 2.3450630738586105 A 4.098435855530766 4.098435855530766 0 0 0 -2.431794619725075 2.3450630738586105 Z" fill="#0e0904" fill-rule="nonzero"></path></g><g transform="matrix(-0.8007229968636903,-0.5990347922229814,0.5990347922229814,-0.8007229968636903,-4.319899615839635,7.663536038842204)"><g clip-path="url(#SvgjsClipPath1017)"><path d=" M -0.9602553227364284 4.642386993357491 L -0.8102656675640147 4.642386993357491 C -0.7931768461847044 4.642386993357491 -0.7822398227364284 4.629790084391973 -0.7822398227364284 4.614264488529904 C -0.7822398227364284 4.609577034047145 -0.7834119641157389 4.604791808529904 -0.7859506779088423 4.6003976671505935 L -0.8611410475640147 4.469352372047146 C -0.8664140172191871 4.4599780185988696 -0.8757889261847043 4.455193126391973 -0.8852604951502215 4.455193126391973 C -0.8947320641157388 4.455193126391973 -0.9042047441157388 4.460075678529904 -0.9094777137709112 4.469352372047146 L -0.9846677501157388 4.600495438185076 C -0.9872065750122905 4.604889579564387 -0.988378383081256 4.609577034047145 -0.988378383081256 4.614264488529904 C -0.988378383081256 4.629790084391973 -0.9773440330122906 4.642386993357491 -0.9602553227364284 4.642386993357491 Z M -0.9584000062536698 4.623638286460939 C -0.9644542553571182 4.623638286460939 -0.9684578681157388 4.6186586299092145 -0.9684578681157388 4.613287889219559 C -0.9684578681157388 4.611725774736801 -0.9682625482536699 4.609772576116111 -0.9672860600467733 4.608014919564387 L -0.8940487779088423 4.479800873633352 C -0.8920955792881526 4.476480769288525 -0.8886780372191871 4.474918321495421 -0.8852604951502215 4.474918321495421 C -0.881842953081256 4.474918321495421 -0.8785231820467733 4.476480769288525 -0.8766677544605663 4.479800873633352 L -0.8033328123916009 4.608210461633353 C -0.8024539841157389 4.6098703471505935 -0.8020628999778078 4.611725774736801 -0.8020628999778078 4.613287889219559 C -0.8020628999778078 4.6186586299092145 -0.8061648392881526 4.623638286460939 -0.8122188661847043 4.623638286460939 L -0.9584000062536698 4.623638286460939 Z" fill="#0e0904" transform="matrix(1,0,0,1,0,0)" fill-rule="nonzero"></path></g></g><g transform="matrix(0.8007229968636903,-0.5990347922229814,-0.5990347922229814,-0.8007229968636903,3.5664492840257025,10.720891885195487)"><g clip-path="url(#SvgjsClipPath1018)"><path d=" M 4.1435481391753965 4.64238699335749 L 4.29353779434781 4.64238699335749 C 4.310626615727121 4.64238699335749 4.321563639175396 4.629790084391972 4.321563639175396 4.614264488529903 C 4.321563639175396 4.6095770340471445 4.320391497796087 4.604791808529903 4.317852784002983 4.600397667150593 L 4.24266241434781 4.469352372047145 C 4.237389444692639 4.459978018598869 4.228014535727121 4.455193126391972 4.2185429667616035 4.455193126391972 C 4.2090713977960865 4.455193126391972 4.1995987177960865 4.460075678529903 4.194325748140914 4.469352372047145 L 4.119135711796087 4.600495438185075 C 4.116596886899535 4.604889579564386 4.115425078830569 4.6095770340471445 4.115425078830569 4.614264488529903 C 4.115425078830569 4.629790084391972 4.126459428899535 4.64238699335749 4.1435481391753965 4.64238699335749 Z M 4.145403455658156 4.623638286460938 C 4.139349206554707 4.623638286460938 4.135345593796086 4.618658629909214 4.135345593796086 4.613287889219558 C 4.135345593796086 4.6117257747368 4.135540913658155 4.60977257611611 4.136517401865052 4.608014919564386 L 4.209754684002983 4.479800873633351 C 4.2117078826236725 4.476480769288524 4.215125424692638 4.47491832149542 4.2185429667616035 4.47491832149542 C 4.221960508830569 4.47491832149542 4.225280279865052 4.476480769288524 4.227135707451259 4.479800873633351 L 4.300470649520224 4.608210461633352 C 4.301349477796086 4.609870347150593 4.301740561934017 4.6117257747368 4.301740561934017 4.613287889219558 C 4.301740561934017 4.618658629909214 4.297638622623673 4.623638286460938 4.291584595727121 4.623638286460938 L 4.145403455658156 4.623638286460938 Z" fill="#0e0904" transform="matrix(1,0,0,1,0,0)" fill-rule="nonzero"></path></g></g></g><defs><clipPath id="SvgjsClipPath1016"><path d=" M 0 0 h 3.333282471611382 v 4.690126147717223 h -3.333282471611382 Z"></path></clipPath><clipPath id="ab58b3575-e6cd-4578-9c5d-816104551daf98b3db96-684b-40ea-be33-c5012ed7d4d3"><path d=" M 0.000010384224109611109 4.690165603970279 L 3.3332765253889107 4.690165603970279 L 3.3332765253889107 0.00003593566652327926 L 0.000010384224109611109 0.00003593566652327926 Z"></path></clipPath><clipPath id="SvgjsClipPath1017"><path d=" M -1.0408053227364285 4.389204455426456 h 0.31108965517241377 v 0.3222 h -0.31108965517241377 Z"></path></clipPath><clipPath id="SvgjsClipPath1018"><path d=" M 4.062998139175397 4.389204455426455 h 0.31108965517241377 v 0.3222 h -0.31108965517241377 Z"></path></clipPath></defs></svg>